<?xml version="1.0" standalone="no"?>
<!DOCTYPE svg PUBLIC "-//W3C//DTD SVG 20010904//EN"
 "http://www.w3.org/TR/2001/REC-SVG-20010904/DTD/svg10.dtd">
<svg version="1.0" xmlns="http://www.w3.org/2000/svg"
 width="2128.000000pt" height="2128.000000pt" viewBox="0 0 2128.000000 2128.000000"
 preserveAspectRatio="xMidYMid meet">
<metadata>
Created by potrace 1.14, written by Peter Selinger 2001-2017
</metadata>
<g transform="translate(0.000000,2128.000000) scale(0.100000,-0.100000)"
fill="#000000" stroke="none">
<path d="M9500 16124 c-455 -33 -1007 -157 -1420 -319 -214 -84 -418 -177
-520 -237 -30 -18 -64 -31 -75 -29 -11 2 -53 20 -95 41 -644 323 -1412 500
-2164 500 -804 0 -1596 -208 -2346 -613 -244 -132 -451 -271 -688 -460 -425
-340 -769 -708 -1051 -1127 -432 -639 -706 -1298 -850 -2040 -117 -601 -136
-1153 -61 -1745 73 -575 255 -1188 504 -1701 412 -846 1052 -1578 1817 -2077
735 -480 1553 -741 2467 -788 761 -39 1564 122 2269 456 l121 57 234 -115
c449 -223 874 -365 1318 -442 542 -93 1136 -93 1673 1 516 90 1147 318 1538
556 53 32 99 58 102 58 3 0 36 20 73 45 45 29 75 43 87 39 11 -3 70 -39 131
-79 380 -248 856 -474 1291 -615 1216 -393 2567 -340 3745 147 1087 449 1978
1219 2595 2243 107 178 294 556 368 745 202 516 322 1065 373 1700 14 180 15
249 5 485 -17 432 -55 712 -146 1085 -179 736 -497 1396 -978 2028 -160 210
-289 356 -478 542 -796 779 -1799 1296 -2873 1479 -322 56 -580 76 -950 76
-377 0 -608 -19 -942 -76 -479 -81 -1075 -273 -1459 -470 -187 -96 -277 -145
-326 -178 -30 -20 -58 -36 -62 -36 -5 0 -22 -9 -37 -20 -18 -13 -35 -17 -47
-13 -10 4 -81 48 -158 99 -669 440 -1373 693 -2165 780 -138 15 -692 27 -820
18z"/>
</g>
</svg>
